<svg width="1996" height="1715" xmlns="http://www.w3.org/2000/svg" xmlns:xlink="http://www.w3.org/1999/xlink" xml:space="preserve" overflow="hidden"><g transform="translate(-3567 -3050)"><rect x="4069.5" y="4593.5" width="990" height="165" stroke="#46B1E1" stroke-width="4.58333" stroke-miterlimit="8" fill="#46B1E1"/><path d="M4151.5 4593.5 4374.25 4263.5 4753.75 4263.5 4976.5 4593.5Z" stroke="#46B1E1" stroke-width="4.58333" stroke-miterlimit="8" fill="#46B1E1" fill-rule="evenodd"/><rect x="4069.5" y="3768.5" width="990" height="495" stroke="#46B1E1" stroke-width="4.58333" stroke-miterlimit="8" fill="#46B1E1"/><path d="M0 330 0 0 495 330Z" stroke="#46B1E1" stroke-width="4.58333" stroke-miterlimit="8" fill="#46B1E1" fill-rule="evenodd" transform="matrix(1 0 0 -1 5059.5 4180.5)"/><path d="M4069.5 4263.5 3574.5 4016 4069.5 3768.5Z" stroke="#46B1E1" stroke-width="4.58333" stroke-miterlimit="8" fill="#46B1E1" fill-rule="evenodd"/><path d="M4563.89 3060.59 4913.91 3410.61 4563.89 3760.63 4213.87 3410.61Z" stroke="#275317" stroke-width="13.75" stroke-miterlimit="8" fill="#3B7D23" fill-rule="evenodd"/><path d="M4563.89 3118.93 4855.57 3410.61 4563.89 3702.29 4272.21 3410.61Z" stroke="#262626" stroke-width="13.75" stroke-miterlimit="8" fill="#404040" fill-rule="evenodd"/><path d="M4395.46 3400.98 4549.4 3554.92 4539.68 3564.65 4385.74 3410.7ZM4376.02 3420.42C4367.96 3412.37 4367.96 3399.31 4376.02 3391.26 4384.07 3383.2 4397.13 3383.2 4405.18 3391.26 4413.24 3399.31 4413.24 3412.37 4405.18 3420.42 4397.13 3428.48 4384.07 3428.48 4376.02 3420.42ZM4559.13 3545.2C4567.18 3553.25 4567.18 3566.31 4559.13 3574.37 4551.07 3582.42 4538.01 3582.42 4529.96 3574.37 4521.9 3566.31 4521.9 3553.25 4529.96 3545.2 4538.01 3537.15 4551.07 3537.15 4559.13 3545.2Z" fill="#EBE600"/><path d="M4669.03 3353.7 4741.43 3426.1 4731.7 3435.82 4659.31 3363.42ZM4649.59 3373.15C4641.53 3365.09 4641.53 3352.03 4649.59 3343.98 4657.64 3335.92 4670.7 3335.92 4678.76 3343.98 4686.81 3352.03 4686.81 3365.09 4678.76 3373.15 4670.7 3381.2 4657.64 3381.2 4649.59 3373.15ZM4751.15 3416.37C4759.2 3424.43 4759.2 3437.49 4751.15 3445.54 4743.1 3453.6 4730.04 3453.6 4721.98 3445.54 4713.93 3437.49 4713.93 3424.43 4721.98 3416.37 4730.04 3408.32 4743.1 3408.32 4751.15 3416.37Z" fill="#EBE600"/><path d="M4069 4758 5059 4758" stroke="#000000" stroke-width="13.75" stroke-miterlimit="8" fill="none" fill-rule="evenodd"/><path d="M0 0 0.000360892 165" stroke="#000000" stroke-width="13.75" stroke-miterlimit="8" fill="none" fill-rule="evenodd" transform="matrix(1 0 0 -1 5059 4758)"/><path d="M4976 4593 5058.5 4593" stroke="#000000" stroke-width="13.75" stroke-miterlimit="8" fill="none" fill-rule="evenodd"/><path d="M4976.72 4593 4755 4263" stroke="#000000" stroke-width="13.75" stroke-miterlimit="8" fill="none" fill-rule="evenodd"/><path d="M0 0 304.217 0.000360892" stroke="#000000" stroke-width="13.75" stroke-miterlimit="8" fill="none" fill-rule="evenodd" transform="matrix(-1 0 0 1 5059.22 4263)"/><path d="M5059 4180 5059 4262.5" stroke="#000000" stroke-width="13.75" stroke-miterlimit="8" fill="none" fill-rule="evenodd"/><path d="M0 0 495 330" stroke="#000000" stroke-width="13.75" stroke-miterlimit="8" fill="none" fill-rule="evenodd" transform="matrix(1 0 0 -1 5059 4180)"/><path d="M5059 3850 5554 3850" stroke="#000000" stroke-width="13.75" stroke-miterlimit="8" fill="none" fill-rule="evenodd"/><path d="M5059 3850.5 5059 3768" stroke="#000000" stroke-width="13.75" stroke-miterlimit="8" fill="none" fill-rule="evenodd"/><path d="M4069 3768 5059 3768" stroke="#000000" stroke-width="13.75" stroke-miterlimit="8" fill="none" fill-rule="evenodd"/><path d="M0 0 495 247.5" stroke="#000000" stroke-width="13.75" stroke-miterlimit="8" fill="none" fill-rule="evenodd" transform="matrix(-1 0 0 1 4069 3768)"/><path d="M4069 4262.5 3574 4015" stroke="#000000" stroke-width="13.75" stroke-miterlimit="8" fill="none" fill-rule="evenodd"/><path d="M0 0 304.217 0.000360892" stroke="#000000" stroke-width="13.75" stroke-miterlimit="8" fill="none" fill-rule="evenodd" transform="matrix(-1 0 0 1 4373.22 4263)"/><path d="M0 0 221.717 330" stroke="#000000" stroke-width="13.75" stroke-miterlimit="8" fill="none" fill-rule="evenodd" transform="matrix(1 0 0 -1 4151 4593)"/><path d="M4069 4593 4151.5 4593" stroke="#000000" stroke-width="13.75" stroke-miterlimit="8" fill="none" fill-rule="evenodd"/><path d="M0 0 0.000360892 165" stroke="#000000" stroke-width="13.75" stroke-miterlimit="8" fill="none" fill-rule="evenodd" transform="matrix(1 0 0 -1 4069 4758)"/></g></svg>